<svg width="28" height="28" viewBox="0 0 28 28" fill="none" xmlns="http://www.w3.org/2000/svg">
<path fill-rule="evenodd" clip-rule="evenodd" d="M14.0003 27.3332C21.3643 27.3332 27.3337 21.3638 27.3337 13.9998C27.3337 6.63584 21.3643 0.666504 14.0003 0.666504C6.63633 0.666504 0.666992 6.63584 0.666992 13.9998C0.666992 21.3638 6.63633 27.3332 14.0003 27.3332ZM14.627 9.29317C14.8145 9.1059 15.0687 9.00072 15.3337 9.00072C15.5987 9.00072 15.8528 9.1059 16.0403 9.29317L20.0403 13.2932C20.2276 13.4807 20.3328 13.7348 20.3328 13.9998C20.3328 14.2648 20.2276 14.519 20.0403 14.7065L16.0403 18.7065C15.9488 18.8048 15.8384 18.8836 15.7157 18.9382C15.593 18.9929 15.4606 19.0223 15.3264 19.0246C15.1921 19.027 15.0587 19.0023 14.9342 18.952C14.8097 18.9017 14.6966 18.8268 14.6016 18.7319C14.5066 18.6369 14.4318 18.5238 14.3815 18.3993C14.3312 18.2748 14.3065 18.1414 14.3089 18.0071C14.3112 17.8729 14.3406 17.7405 14.3953 17.6178C14.4499 17.4951 14.5287 17.3847 14.627 17.2932L16.9203 14.9998H8.66699C8.40178 14.9998 8.14742 14.8945 7.95989 14.7069C7.77235 14.5194 7.66699 14.2651 7.66699 13.9998C7.66699 13.7346 7.77235 13.4803 7.95989 13.2927C8.14742 13.1052 8.40178 12.9998 8.66699 12.9998H16.9203L14.627 10.7065C14.4397 10.519 14.3345 10.2648 14.3345 9.99984C14.3345 9.73484 14.4397 9.48067 14.627 9.29317Z" fill="white"/>
</svg>
