<svg width="636" height="207" viewBox="0 0 636 207" fill="none" xmlns="http://www.w3.org/2000/svg" xmlns:xlink="http://www.w3.org/1999/xlink">
    <path d="M54.1934 166.24C47.4156 166.24 40.9251 165.177 34.7217 163.052C28.5758 160.927 23.1765 157.854 18.524 153.833C13.9289 149.813 10.6262 145.045 8.6158 139.531L30.9307 131.26C31.62 133.213 33.056 135.051 35.2386 136.774C37.4213 138.44 40.1496 139.818 43.4237 140.91C46.6977 141.944 50.2876 142.46 54.1934 142.46C57.9269 142.46 61.4307 141.915 64.7047 140.823C68.0361 139.675 70.707 138.095 72.7174 136.085C74.7852 134.074 75.8191 131.719 75.8191 129.02C75.8191 126.32 74.7565 124.08 72.6312 122.3C70.506 120.519 67.7777 119.112 64.4462 118.078C61.1148 116.986 57.6972 116.154 54.1934 115.579C45.5202 114.316 37.7372 112.276 30.8446 109.462C24.0094 106.59 18.6101 102.655 14.6469 97.6583C10.6836 92.6037 8.70196 86.1993 8.70196 78.4451C8.70196 70.978 10.7985 64.4587 14.9915 58.8872C19.242 53.3156 24.8135 48.979 31.7062 45.8773C38.6562 42.7756 46.152 41.2248 54.1934 41.2248C60.8563 41.2248 67.2894 42.2874 73.4928 44.4126C79.6962 46.5379 85.0954 49.6108 89.6905 53.6315C94.3431 57.6523 97.6745 62.4771 99.6849 68.1061L77.3699 76.2049C76.6807 74.252 75.2447 72.4427 73.062 70.777C70.8794 69.1113 68.151 67.7615 64.877 66.7276C61.603 65.6937 58.0418 65.1767 54.1934 65.1767C50.5173 65.1193 47.0136 65.665 43.6821 66.8137C40.4081 67.9625 37.7085 69.5421 35.5833 71.5524C33.5155 73.5628 32.4816 75.8603 32.4816 78.4451C32.4816 81.8339 33.458 84.39 35.411 86.1131C37.4213 87.8363 40.0635 89.0712 43.3375 89.8179C46.6115 90.5646 50.2301 91.2252 54.1934 91.7996C62.3497 93.0058 69.8742 95.1597 76.7668 98.2614C83.6595 101.306 89.1736 105.384 93.3092 110.496C97.5022 115.55 99.5987 121.725 99.5987 129.02C99.5987 136.487 97.5022 143.006 93.3092 148.578C89.1161 154.149 83.5733 158.486 76.6807 161.588C69.788 164.689 62.2923 166.24 54.1934 166.24ZM162.512 43.3787H189.565L233.333 164H208.089L200.852 144.011H151.225L143.988 164H118.743L162.512 43.3787ZM159.927 120.232H192.15L175.952 76.0326L159.927 120.232ZM259.45 164V43.3787H330.961V67.1584H283.23V87.4917H322.69V111.271H283.23V164H259.45ZM383.184 43.3787H410.237L454.006 164H428.761L421.524 144.011H371.897L364.66 164H339.416L383.184 43.3787ZM380.599 120.232H412.822L396.625 76.0326L380.599 120.232ZM480.122 164V43.3787H528.026C534.574 43.3787 540.49 45.0445 545.775 48.3759C551.117 51.6499 555.338 56.0727 558.44 61.6442C561.599 67.1584 563.179 73.2756 563.179 79.9959C563.179 85.2803 562.26 90.1913 560.422 94.7289C558.584 99.2092 555.999 103.144 552.667 106.533C549.336 109.921 545.459 112.564 541.036 114.459L569.727 164H542.329L514.844 116.613H503.902V164H480.122ZM503.902 92.8335H525.183C527.768 92.8335 530.123 92.2016 532.248 90.938C534.431 89.6169 536.154 87.865 537.418 85.6823C538.739 83.4422 539.399 80.9724 539.399 78.2727C539.399 75.6306 538.739 73.2181 537.418 71.0355C536.154 68.7954 534.431 67.0148 532.248 65.6937C530.123 64.3726 527.768 63.712 525.183 63.712H503.902V92.8335ZM599.27 164V43.3787H623.049V164H599.27Z" fill="black"/>
</svg>
